<svg width="66" height="43" viewBox="0 0 66 43" fill="none" xmlns="http://www.w3.org/2000/svg">
<path d="M1.3194 39.7778V29.9524H5.92329C7.10233 29.9524 8.00065 30.1864 8.61824 30.6542C9.23583 31.1127 9.54463 31.7303 9.54463 32.507C9.54463 33.031 9.42298 33.4802 9.17969 33.8545C8.93639 34.2194 8.60888 34.5048 8.19715 34.7107C7.79478 34.9072 7.35498 35.0055 6.87775 35.0055L7.1304 34.5002C7.68249 34.5002 8.17844 34.6031 8.61824 34.8089C9.05804 35.0055 9.40427 35.2955 9.65692 35.6792C9.91893 36.0629 10.0499 36.5401 10.0499 37.1109C10.0499 37.9531 9.7271 38.6081 9.08144 39.076C8.43577 39.5438 7.47663 39.7778 6.20401 39.7778H1.3194ZM3.14411 38.3461H6.09172C6.77482 38.3461 7.29884 38.2338 7.66378 38.0092C8.02872 37.7846 8.21119 37.4244 8.21119 36.9284C8.21119 36.4418 8.02872 36.0862 7.66378 35.8617C7.29884 35.6277 6.77482 35.5108 6.09172 35.5108H3.00375V34.0931H5.72678C6.36309 34.0931 6.84968 33.9808 7.18655 33.7562C7.53277 33.5317 7.70589 33.1948 7.70589 32.7456C7.70589 32.2871 7.53277 31.9456 7.18655 31.721C6.84968 31.4964 6.36309 31.3841 5.72678 31.3841H3.14411V38.3461ZM11.8289 39.7778V32.2824H13.5834V39.7778H11.8289ZM12.7132 31.0472C12.3857 31.0472 12.1143 30.9443 11.8991 30.7384C11.6932 30.5326 11.5903 30.2846 11.5903 29.9945C11.5903 29.6951 11.6932 29.4471 11.8991 29.2506C12.1143 29.0447 12.3857 28.9418 12.7132 28.9418C13.0407 28.9418 13.3074 29.0401 13.5133 29.2366C13.7285 29.4237 13.8361 29.6623 13.8361 29.9524C13.8361 30.2612 13.7332 30.5232 13.5273 30.7384C13.3214 30.9443 13.0501 31.0472 12.7132 31.0472ZM17.318 38.1075L17.3601 35.9038L21.2762 32.2824H23.3816L20.055 35.623L19.1286 36.395L17.318 38.1075ZM15.8863 39.7778V29.3629H17.6408V39.7778H15.8863ZM21.5429 39.7778L18.8058 36.395L19.9147 34.9914L23.6764 39.7778H21.5429ZM28.0312 39.876C27.1984 39.876 26.4685 39.7123 25.8416 39.3848C25.224 39.0479 24.7421 38.5894 24.3958 38.0092C24.059 37.429 23.8905 36.7693 23.8905 36.0301C23.8905 35.2815 24.0543 34.6218 24.3818 34.051C24.7187 33.4708 25.1772 33.017 25.7573 32.6895C26.3469 32.362 27.0159 32.1982 27.7645 32.1982C28.4944 32.1982 29.1448 32.3573 29.7156 32.6754C30.2864 32.9936 30.7355 33.4428 31.063 34.0229C31.3905 34.6031 31.5543 35.2862 31.5543 36.0722C31.5543 36.1471 31.5496 36.2313 31.5403 36.3249C31.5403 36.4184 31.5356 36.5073 31.5262 36.5915H25.2801V35.4265H30.5998L29.9121 35.7915C29.9214 35.361 29.8325 34.9821 29.6454 34.6546C29.4582 34.327 29.2009 34.0697 28.8734 33.8826C28.5552 33.6954 28.1856 33.6018 27.7645 33.6018C27.3341 33.6018 26.9551 33.6954 26.6276 33.8826C26.3094 34.0697 26.0568 34.3317 25.8696 34.6686C25.6918 34.9961 25.6029 35.3844 25.6029 35.8336V36.1143C25.6029 36.5635 25.7059 36.9612 25.9117 37.3074C26.1176 37.6536 26.4077 37.9203 26.782 38.1075C27.1563 38.2946 27.5867 38.3882 28.0733 38.3882C28.4944 38.3882 28.8734 38.3227 29.2103 38.1917C29.5471 38.0607 29.8466 37.8548 30.1086 37.5741L31.049 38.6549C30.7121 39.0479 30.2864 39.352 29.7717 39.5672C29.2664 39.7731 28.6862 39.876 28.0312 39.876ZM33.4081 39.7778V29.9524H37.4505C38.3208 29.9524 39.0647 30.0928 39.6823 30.3735C40.3092 30.6542 40.7911 31.0566 41.128 31.5806C41.4649 32.1046 41.6333 32.7269 41.6333 33.4474C41.6333 34.168 41.4649 34.7902 41.128 35.3143C40.7911 35.8383 40.3092 36.2406 39.6823 36.5214C39.0647 36.8021 38.3208 36.9425 37.4505 36.9425H34.4187L35.2328 36.0862V39.7778H33.4081ZM35.2328 36.2828L34.4187 35.3985H37.3663C38.171 35.3985 38.7746 35.23 39.177 34.8932C39.5887 34.5469 39.7946 34.065 39.7946 33.4474C39.7946 32.8205 39.5887 32.3386 39.177 32.0017C38.7746 31.6648 38.171 31.4964 37.3663 31.4964H34.4187L35.2328 30.5981V36.2828ZM47.8364 39.7778V38.2619L47.7382 37.939V35.2862C47.7382 34.7715 47.5838 34.3738 47.275 34.0931C46.9662 33.803 46.4983 33.658 45.8714 33.658C45.4503 33.658 45.0339 33.7235 44.6221 33.8545C44.2198 33.9855 43.8782 34.168 43.5975 34.4019L42.9097 33.1246C43.3121 32.8158 43.7893 32.5865 44.3414 32.4368C44.9029 32.2777 45.483 32.1982 46.0819 32.1982C47.1674 32.1982 48.0049 32.4602 48.5944 32.9842C49.1933 33.4989 49.4927 34.299 49.4927 35.3844V39.7778H47.8364ZM45.4783 39.876C44.9169 39.876 44.4256 39.7824 44.0045 39.5953C43.5835 39.3988 43.2559 39.1321 43.022 38.7952C42.7974 38.449 42.6851 38.0607 42.6851 37.6302C42.6851 37.2091 42.7834 36.8302 42.9799 36.4933C43.1858 36.1564 43.518 35.8897 43.9765 35.6932C44.435 35.4967 45.0432 35.3985 45.8012 35.3985H47.9768V36.5635H45.9275C45.3286 36.5635 44.9263 36.6617 44.7204 36.8582C44.5145 37.0454 44.4116 37.2793 44.4116 37.56C44.4116 37.8782 44.5379 38.1309 44.7906 38.318C45.0432 38.5052 45.3941 38.5987 45.8433 38.5987C46.2737 38.5987 46.6574 38.5005 46.9943 38.304C47.3405 38.1075 47.5885 37.8174 47.7382 37.4337L48.0329 38.4864C47.8645 38.9262 47.5604 39.2678 47.1206 39.5111C46.6901 39.7544 46.1427 39.876 45.4783 39.876ZM51.7444 39.7778V32.2824H53.4147V34.3458L53.2182 33.7422C53.4428 33.2369 53.7937 32.8532 54.2709 32.5912C54.7575 32.3292 55.3611 32.1982 56.0816 32.1982V33.8685C56.0068 33.8498 55.9366 33.8404 55.8711 33.8404C55.8056 33.8311 55.7401 33.8264 55.6746 33.8264C55.0102 33.8264 54.4815 34.0229 54.0885 34.4159C53.6955 34.7996 53.499 35.3751 53.499 36.1424V39.7778H51.7444ZM59.0017 38.1075L59.0438 35.9038L62.9599 32.2824H65.0653L61.7388 35.623L60.8124 36.395L59.0017 38.1075ZM57.57 39.7778V29.3629H59.3245V39.7778H57.57ZM63.2266 39.7778L60.4895 36.395L61.5984 34.9914L65.3601 39.7778H63.2266Z" fill="#297FFF"/>
<path d="M36.6747 10.3653H32.8799" stroke="#297FFF" stroke-width="1.94118" stroke-miterlimit="10" stroke-linecap="round" stroke-linejoin="bevel"/>
<path d="M42.3668 20.7158L32.8799 10.3653" stroke="#297FFF" stroke-width="1.94118" stroke-miterlimit="10" stroke-linecap="round" stroke-linejoin="bevel"/>
<path d="M36.7509 20.7159C36.7509 23.4357 39.2555 25.7023 42.3672 25.7023C45.4789 25.7023 47.9835 23.4357 47.9835 20.7159C47.9835 17.9961 45.4789 15.7296 42.3672 15.7296C40.318 15.7296 38.4965 16.7117 37.5099 18.2227" stroke="#297FFF" stroke-width="1.94118" stroke-miterlimit="10" stroke-linecap="round" stroke-linejoin="bevel"/>
<path d="M24.0001 17.0895C23.6965 17.0139 23.317 17.0139 22.9375 17.0139C20.2812 17.0139 18.0802 18.9782 18.0802 21.3959C18.0802 23.8135 20.2812 25.7778 22.9375 25.7778C25.5939 25.7778 27.7948 23.8135 27.7948 21.3959" stroke="#297FFF" stroke-width="1.94118" stroke-miterlimit="10" stroke-linecap="round" stroke-linejoin="bevel"/>
<path d="M32.4398 5.42101C33.5924 5.0367 34.2461 3.89126 33.9 2.86259C33.5539 1.83392 32.3389 1.31156 31.1863 1.69587C30.0337 2.08018 29.38 3.22562 29.7261 4.25429C30.0722 5.28296 31.2872 5.80532 32.4398 5.42101Z" stroke="#297FFF" stroke-width="1.94118" stroke-miterlimit="10" stroke-linecap="round" stroke-linejoin="bevel"/>
<path d="M29.6164 7.19232C27.6431 9.30774 26.1251 12.1787 25.8975 13.3119" stroke="#297FFF" stroke-width="1.94118" stroke-miterlimit="10" stroke-linecap="round" stroke-linejoin="bevel"/>
<path d="M29.4647 16.6361C27.2637 17.3161 25.0627 21.3203 22.5582 20.867L29.4647 16.6361Z" fill="#297FFF"/>
<path d="M29.4647 16.6361C27.2637 17.3161 25.0627 21.3203 22.5582 20.867" stroke="#297FFF" stroke-width="1.94118" stroke-miterlimit="10" stroke-linecap="round" stroke-linejoin="round"/>
<path d="M25.9734 13.3873C27.7949 13.1607 30.8307 14.2184 31.8174 15.5783C33.1076 17.3915 31.8174 19.8092 30.4512 21.3957" stroke="#297FFF" stroke-width="1.94118" stroke-miterlimit="10" stroke-linecap="round" stroke-linejoin="round"/>
<path d="M34.0947 16.1074C34.4719 16.1074 34.7777 15.8029 34.7777 15.4274C34.7777 15.0519 34.4719 14.7474 34.0947 14.7474C33.7174 14.7474 33.4116 15.0519 33.4116 15.4274C33.4116 15.8029 33.7174 16.1074 34.0947 16.1074Z" fill="#297FFF"/>
</svg>
